<svg width="16" height="16" viewBox="0 0 16 16" fill="none" xmlns="http://www.w3.org/2000/svg">
<g fill="#5b5b66">
  <path d="M11.64 7.58401L11.008 6.99201C10.856 7.04001 10.416 7.06401 10.192 7.06401H5.87999C5.54399 7.06401 5.20799 7.03201 4.90399 6.98401V8.09601C5.27999 8.06401 5.54399 8.04001 5.87999 8.04001H10.048C9.83999 8.43201 9.21599 9.13601 8.57599 9.52801L9.40799 10.192C10.192 9.63201 10.952 8.62401 11.328 8.00001C11.4 7.88001 11.552 7.68801 11.64 7.58401ZM8.37599 8.66401H7.21599C7.25599 8.92001 7.27199 9.13601 7.27199 9.38401C7.27199 10.696 7.07999 11.544 6.06399 12.248C5.76799 12.464 5.47999 12.6 5.22399 12.688L6.15999 13.448C8.33599 12.28 8.37599 10.648 8.37599 8.66401Z" />
  <path fill-rule="evenodd" clip-rule="evenodd" d="M2 1C2 0.447715 2.44772 0 3 0H11C12.6569 0 14 1.34315 14 3V13C14 14.6569 12.6569 16 11 16H3C2.44772 16 2 15.5523 2 15V1ZM4 2C4 1.44772 4.44772 1 5 1H6V5H7V1H11C12.1046 1 13 1.89543 13 3V13C13 14.1046 12.1046 15 11 15H5C4.44772 15 4 14.5523 4 14V2Z" />
</g>
</svg>
