<svg width="16" height="16" viewBox="0 0 16 16" fill="none" xmlns="http://www.w3.org/2000/svg">
<rect width="16" height="16" fill="#323234"/>
<path d="M2 2C2 0.895431 2.89543 0 4 0H11C12.6569 0 14 1.34315 14 3V13C14 14.6569 12.6569 16 11 16H4C2.89543 16 2 15.1046 2 14V2Z" fill="#E2E2E2"/>
<rect x="4" y="2" width="8" height="12" fill="#E2E2E2"/>
<path d="M11.64 7.584L11.008 6.992C10.856 7.04 10.416 7.064 10.192 7.064H5.88C5.544 7.064 5.208 7.032 4.904 6.984V8.096C5.28 8.064 5.544 8.04 5.88 8.04H10.048C9.84 8.432 9.216 9.136 8.576 9.528L9.408 10.192C10.192 9.632 10.952 8.624 11.328 8C11.4 7.88 11.552 7.688 11.64 7.584ZM8.376 8.664H7.216C7.256 8.92 7.272 9.136 7.272 9.384C7.272 10.696 7.08 11.544 6.064 12.248C5.768 12.464 5.48 12.6 5.224 12.688L6.16 13.448C8.336 12.28 8.376 10.648 8.376 8.664Z" fill="#D7630F"/>
<path fill-rule="evenodd" clip-rule="evenodd" d="M3 2C3 1.44772 3.44772 1 4 1H11C12.1046 1 13 1.89543 13 3V13C13 14.1046 12.1046 15 11 15H4C3.44772 15 3 14.5523 3 14V2ZM4 3C4 2.44772 4.44772 2 5 2H6V6H7V2H11C11.5523 2 12 2.44772 12 3V13C12 13.5523 11.5523 14 11 14H5C4.44772 14 4 13.5523 4 13V3Z" fill="#D7630F"/>
</svg>
