<svg width="16" height="16" viewBox="0 0 16 16" fill="none" xmlns="http://www.w3.org/2000/svg">
<path d="M0.99997 8.99999L12.586 8.99999L8.29297 13.293C8.11081 13.4816 8.01002 13.7342 8.0123 13.9964C8.01457 14.2586 8.11974 14.5094 8.30515 14.6948C8.49056 14.8802 8.74137 14.9854 9.00357 14.9877C9.26577 14.9899 9.51837 14.8891 9.70697 14.707L15.707 8.70699C15.8944 8.51946 15.9998 8.26515 15.9998 7.99999C15.9998 7.73483 15.8944 7.48052 15.707 7.29299L9.70697 1.29299C9.51837 1.11083 9.26577 1.01004 9.00357 1.01232C8.74137 1.01459 8.49056 1.11976 8.30515 1.30517C8.11974 1.49058 8.01457 1.74139 8.0123 2.00359C8.01002 2.26578 8.11081 2.51839 8.29297 2.70699L12.586 6.99999L0.99997 6.99999C0.734753 6.99999 0.4804 7.10535 0.292864 7.29288C0.105327 7.48042 -2.98835e-05 7.73477 -2.99067e-05 7.99999C-2.99299e-05 8.2652 0.105327 8.51956 0.292863 8.70709C0.4804 8.89463 0.734753 8.99999 0.99997 8.99999Z" fill="black" fill-opacity="0.9"/>
</svg>
