<svg width="16" height="16" viewBox="0 0 16 16" fill="none" xmlns="http://www.w3.org/2000/svg">
<path d="M15 7.00001H3.41403L7.70703 2.70701C7.88919 2.51841 7.98998 2.26581 7.9877 2.00361C7.98543 1.74141 7.88026 1.4906 7.69485 1.30519C7.50944 1.11978 7.25863 1.01461 6.99643 1.01234C6.73424 1.01006 6.48163 1.11085 6.29303 1.29301L0.293031 7.29301C0.10556 7.48054 0.000244141 7.73485 0.000244141 8.00001C0.000244141 8.26517 0.10556 8.51948 0.293031 8.70701L6.29303 14.707C6.48163 14.8892 6.73424 14.99 6.99643 14.9877C7.25863 14.9854 7.50944 14.8802 7.69485 14.6948C7.88026 14.5094 7.98543 14.2586 7.9877 13.9964C7.98998 13.7342 7.88919 13.4816 7.70703 13.293L3.41403 9.00001H15C15.2652 9.00001 15.5196 8.89465 15.7071 8.70712C15.8947 8.51958 16 8.26523 16 8.00001C16 7.73479 15.8947 7.48044 15.7071 7.2929C15.5196 7.10537 15.2652 7.00001 15 7.00001Z" fill="#5C5C5C" fill-opacity="0.8"/>
</svg>
