<svg width="14" height="14" viewBox="0 0 14 14" fill="none" xmlns="http://www.w3.org/2000/svg">
<path fill-rule="evenodd" clip-rule="evenodd" d="M4.80185 0.513774L13.8056 9.51755C13.9287 9.64057 13.9978 9.80752 13.9978 9.98156V13.3416C13.9978 13.704 13.704 13.9978 13.3416 13.9978H9.98156C9.80752 13.9978 9.64057 13.9287 9.51755 13.8056L0.513774 4.80185C-0.171258 4.11682 -0.171258 3.01006 0.513774 2.32502L2.32502 0.513774C3.01006 -0.171258 4.11682 -0.171258 4.80185 0.513774ZM1.57443 3.38568L1.57444 3.38568L3.38568 1.57444L3.38568 1.57443C3.48494 1.47518 3.64195 1.47519 3.74119 1.57443L5.08337 2.91663L2.91663 5.08337L1.57443 3.74119C1.47519 3.64195 1.47518 3.48494 1.57443 3.38568ZM3.91663 6.08337L6.08337 3.91663L12.4978 10.3311V12.4978H10.3311L3.91663 6.08337Z" fill="white" fill-opacity="0.7"/>
</svg>
