<svg width="14" height="14" viewBox="0 0 14 14" fill="none" xmlns="http://www.w3.org/2000/svg">
<path fill-rule="evenodd" clip-rule="evenodd" d="M4.80186 0.513773L13.8056 9.51755C13.9287 9.64057 13.9978 9.80752 13.9978 9.98156V13.3416C13.9978 13.704 13.704 13.9978 13.3416 13.9978H9.98157C9.80753 13.9978 9.64058 13.9287 9.51756 13.8056L0.513781 4.80185C-0.17125 4.11682 -0.17125 3.01006 0.513781 2.32502L2.32503 0.513773C3.01007 -0.171259 4.11683 -0.171259 4.80186 0.513773ZM1.57444 3.38568L1.57445 3.38568L3.38568 1.57444L3.38569 1.57443C3.48495 1.47518 3.64196 1.47519 3.74119 1.57443L5.05088 2.88412L2.88413 5.05087L1.57444 3.74119C1.4752 3.64195 1.47519 3.48494 1.57444 3.38568ZM3.9448 6.11153L6.11154 3.94479L12.4978 10.3311V12.4978H10.3311L3.9448 6.11153Z" fill="black" fill-opacity="0.7"/>
</svg>
