<svg width="16" height="16" viewBox="0 0 16 16" fill="none" xmlns="http://www.w3.org/2000/svg">
<path d="M14.6929 12.0119L9.73994 2.10586C9.57386 1.77358 9.31852 1.49411 9.00254 1.29878C8.68656 1.10346 8.32242 1 7.95094 1C7.57946 1 7.21532 1.10346 6.89934 1.29878C6.58336 1.49411 6.32802 1.77358 6.16194 2.10586L1.20894 12.0159C1.0575 12.3206 0.986328 12.659 1.00217 12.999C1.01801 13.3389 1.12033 13.6692 1.29946 13.9586C1.47858 14.2479 1.72858 14.4868 2.0258 14.6526C2.32302 14.8183 2.65762 14.9055 2.99794 14.9059H12.9029C13.2439 14.906 13.5792 14.819 13.8771 14.6531C14.1749 14.4872 14.4255 14.2479 14.6048 13.9579C14.7842 13.668 14.8864 13.337 14.9018 12.9964C14.9172 12.6557 14.8453 12.3169 14.6929 12.0119V12.0119ZM6.95094 4.90586C6.95094 4.64065 7.0563 4.38629 7.24383 4.19876C7.43137 4.01122 7.68572 3.90586 7.95094 3.90586C8.21616 3.90586 8.47051 4.01122 8.65805 4.19876C8.84558 4.38629 8.95094 4.64065 8.95094 4.90586V8.90586C8.95094 9.17108 8.84558 9.42543 8.65805 9.61297C8.47051 9.80051 8.21616 9.90586 7.95094 9.90586C7.68572 9.90586 7.43137 9.80051 7.24383 9.61297C7.0563 9.42543 6.95094 9.17108 6.95094 8.90586V4.90586ZM7.95094 13.1559C7.70371 13.1559 7.46204 13.0826 7.25648 12.9452C7.05092 12.8078 6.8907 12.6126 6.79609 12.3842C6.70148 12.1558 6.67673 11.9045 6.72496 11.662C6.77319 11.4195 6.89224 11.1968 7.06706 11.022C7.24187 10.8472 7.4646 10.7281 7.70708 10.6799C7.94955 10.6317 8.20089 10.6564 8.42929 10.751C8.6577 10.8456 8.85293 11.0058 8.99028 11.2114C9.12763 11.417 9.20094 11.6586 9.20094 11.9059C9.20094 12.2374 9.06924 12.5553 8.83482 12.7897C8.6004 13.0242 8.28246 13.1559 7.95094 13.1559V13.1559Z" fill="black" fill-opacity="0.9"/>
</svg>
