<svg width="60" height="85" viewBox="0 0 60 85" fill="none" xmlns="http://www.w3.org/2000/svg">
<g clip-path="url(#clip0_317_246)">
<rect width="60" height="85" fill="white"/>
<rect width="60" height="85" fill="#DCDCDC"/>
<rect x="0.5" y="0.5" width="59" height="84" stroke="black" stroke-opacity="0.05"/>
<path fill-rule="evenodd" clip-rule="evenodd" d="M32.9367 38.6494C32.887 38.5168 32.8093 38.395 32.7072 38.2929C32.5197 38.1054 32.2653 38 32.0001 38L28.0001 38C27.7349 38 27.4806 38.1054 27.293 38.2929C27.1055 38.4804 27.0001 38.7348 27.0001 39L27.0001 44.586L32.9367 38.6494ZM25.0001 46.586V39C25.0001 38.2043 25.3162 37.4413 25.8788 36.8787C26.4414 36.3161 27.2045 36 28.0001 36H32.0001C32.7958 36 33.5588 36.3161 34.1214 36.8787C34.22 36.9773 34.311 37.082 34.3941 37.192L35.2931 36.293C35.4806 36.1055 35.7349 36.0002 36.0001 36.0002C36.2652 36.0002 36.5196 36.1055 36.7071 36.293C36.8946 36.4805 36.9999 36.7348 36.9999 37C36.9999 37.2652 36.8946 37.5195 36.7071 37.707L24.7071 49.707C24.6148 49.8025 24.5045 49.8787 24.3825 49.9311C24.2605 49.9835 24.1293 50.0111 23.9965 50.0123C23.8637 50.0134 23.732 49.9881 23.6091 49.9378C23.4862 49.8875 23.3746 49.8133 23.2807 49.7194C23.1868 49.6255 23.1125 49.5139 23.0623 49.391C23.012 49.2681 22.9867 49.1364 22.9878 49.0036C22.989 48.8708 23.0166 48.7396 23.069 48.6176C23.1214 48.4956 23.1976 48.3852 23.2931 48.293L25.0001 46.586ZM33.0001 42.9289L35.0001 40.9111L35.0001 48C35.0001 48.7956 34.6841 49.5587 34.1214 50.1213C33.5588 50.6839 32.7958 51 32.0001 51H27.0001C26.4697 51 25.961 50.7893 25.5859 50.4142L25.5833 50.4116L27.2829 48.6969L27.293 48.7071C27.4806 48.8946 27.7349 49 28.0001 49H32.0001C32.2653 49 32.5197 48.8946 32.7072 48.7071C32.8948 48.5196 33.0001 48.2652 33.0001 48L33.0001 42.9289Z" fill="black" fill-opacity="0.15"/>
</g>
<defs>
<clipPath id="clip0_317_246">
<rect width="60" height="85" fill="white"/>
</clipPath>
</defs>
</svg>
