<svg width="60" height="85" viewBox="0 0 60 85" fill="none" xmlns="http://www.w3.org/2000/svg">
<rect width="60" height="85" fill="#333333"/>
<path fill-rule="evenodd" clip-rule="evenodd" d="M32.9365 38.6494C32.8869 38.5168 32.8092 38.395 32.7071 38.2929C32.5196 38.1053 32.2652 38 32 38H28C27.7348 38 27.4804 38.1053 27.2929 38.2929C27.1054 38.4804 27 38.7348 27 39V44.586L32.9365 38.6494ZM25 46.586V39C25 38.2043 25.3161 37.4413 25.8787 36.8787C26.4413 36.3161 27.2043 36 28 36H32C32.7957 36 33.5587 36.3161 34.1213 36.8787C34.2199 36.9773 34.3109 37.082 34.394 37.192L35.293 36.293C35.4805 36.1055 35.7348 36.0002 36 36.0002C36.2651 36.0002 36.5194 36.1055 36.707 36.293C36.8944 36.4805 36.9997 36.7348 36.9997 37C36.9997 37.2652 36.8944 37.5195 36.707 37.707L24.707 49.707C24.6147 49.8025 24.5044 49.8787 24.3824 49.9311C24.2604 49.9835 24.1291 50.0111 23.9964 50.0122C23.8636 50.0134 23.7319 49.9881 23.609 49.9378C23.4861 49.8875 23.3745 49.8133 23.2806 49.7194C23.1867 49.6255 23.1124 49.5139 23.0621 49.391C23.0119 49.2681 22.9866 49.1364 22.9877 49.0036C22.9889 48.8708 23.0164 48.7396 23.0689 48.6176C23.1213 48.4956 23.1974 48.3853 23.293 48.293L25 46.586ZM33 42.9289L35 40.9111V48C35 48.7957 34.6839 49.5587 34.1213 50.1213C33.5587 50.6839 32.7957 51 32 51H27C26.4696 51 25.9609 50.7893 25.5858 50.4142L25.5832 50.4116L27.2828 48.6969L27.2929 48.7071C27.4804 48.8947 27.7348 49 28 49H32C32.2652 49 32.5196 48.8947 32.7071 48.7071C32.8946 48.5196 33 48.2652 33 48V42.9289Z" fill="white" fill-opacity="0.15"/>
</svg>
