<svg width="16" height="16" viewBox="0 0 16 16" fill="none" xmlns="http://www.w3.org/2000/svg">
<g clip-path="url(#clip0)">
<path d="M15 1C14.7348 1 14.4805 1.10536 14.2929 1.29289C14.1054 1.48043 14 1.73478 14 2V4.418C13.3725 3.36744 12.4804 2.49987 11.4127 1.90193C10.3451 1.30399 9.13921 0.996601 7.91559 1.01045C6.69196 1.0243 5.49338 1.35891 4.43952 1.98086C3.38566 2.60281 2.51339 3.49034 1.90982 4.55484C1.30625 5.61934 0.992496 6.82355 0.999883 8.04723C1.00727 9.27091 1.33554 10.4712 1.95192 11.5284C2.5683 12.5855 3.45121 13.4624 4.51251 14.0716C5.5738 14.6808 6.77634 15.0009 8.00004 15C8.91969 15.0026 9.83072 14.8227 10.6804 14.4708C11.5301 14.119 12.3015 13.602 12.95 12.95C13.1322 12.7614 13.233 12.5088 13.2307 12.2466C13.2284 11.9844 13.1233 11.7336 12.9379 11.5482C12.7525 11.3628 12.5016 11.2576 12.2394 11.2553C11.9772 11.253 11.7246 11.3538 11.536 11.536C10.7836 12.3025 9.80504 12.8074 8.74431 12.9764C7.68357 13.1454 6.59658 12.9697 5.64314 12.4751C4.6897 11.9804 3.92009 11.1929 3.44746 10.2284C2.97482 9.26386 2.8241 8.17312 3.01743 7.11655C3.21077 6.05997 3.73797 5.09329 4.52153 4.35861C5.3051 3.62393 6.30369 3.16 7.37052 3.03503C8.43734 2.91006 9.51612 3.13064 10.4483 3.66434C11.3804 4.19804 12.1167 5.01671 12.549 6H10C9.73482 6 9.48047 6.10536 9.29293 6.29289C9.1054 6.48043 9.00004 6.73478 9.00004 7C9.00004 7.26522 9.1054 7.51957 9.29293 7.70711C9.48047 7.89464 9.73482 8 10 8H15C15.2653 8 15.5196 7.89464 15.7071 7.70711C15.8947 7.51957 16 7.26522 16 7V2C16 1.73478 15.8947 1.48043 15.7071 1.29289C15.5196 1.10536 15.2653 1 15 1Z" fill="#F9F9FA" fill-opacity="0.8"/>
</g>
<defs>
<clipPath id="clip0">
<rect width="16" height="16" fill="white"/>
</clipPath>
</defs>
</svg>
