<svg width="16" height="16" viewBox="0 0 16 16" fill="none" xmlns="http://www.w3.org/2000/svg">
<g clip-path="url(#clip0_322_377)">
<path d="M15.7071 14.293L10.8851 9.47101C11.7603 8.24116 12.1415 6.72734 11.9531 5.22966C11.7646 3.73197 11.0203 2.35977 9.86769 1.38507C8.71507 0.410373 7.23829 -0.0956523 5.73011 -0.032691C4.22193 0.0302703 2.79246 0.657622 1.72509 1.725C0.657713 2.79237 0.0303618 4.22184 -0.0325994 5.73002C-0.0955607 7.2382 0.410465 8.71498 1.38516 9.8676C2.35986 11.0202 3.73206 11.7645 5.22975 11.953C6.72743 12.1414 8.24125 11.7603 9.47111 10.885L14.2931 15.707C14.4817 15.8892 14.7343 15.99 14.9965 15.9877C15.2587 15.9854 15.5095 15.8802 15.6949 15.6948C15.8803 15.5094 15.9855 15.2586 15.9878 14.9964C15.9901 14.7342 15.8893 14.4816 15.7071 14.293V14.293ZM6.00011 10C5.20898 10 4.43562 9.76542 3.77782 9.32589C3.12003 8.88637 2.60734 8.26165 2.30459 7.53075C2.00184 6.79984 1.92262 5.99558 2.07696 5.21965C2.23131 4.44373 2.61227 3.731 3.17168 3.17159C3.73109 2.61218 4.44382 2.23121 5.21974 2.07687C5.99567 1.92253 6.79993 2.00175 7.53084 2.3045C8.26174 2.60725 8.88646 3.11994 9.32598 3.77773C9.76551 4.43553 10.0001 5.20889 10.0001 6.00001C10.0001 7.06088 9.57868 8.0783 8.82853 8.82844C8.07839 9.57859 7.06097 10 6.00011 10V10Z" fill="#5C5C5C" fill-opacity="0.8"/>
</g>
<defs>
<clipPath id="clip0_322_377">
<rect width="16" height="16" fill="white"/>
</clipPath>
</defs>
</svg>
