<svg width="16" height="16" viewBox="0 0 16 16" fill="none" xmlns="http://www.w3.org/2000/svg">
<g clip-path="url(#clip0_320_246)">
<path d="M15.707 14.293L10.885 9.471C11.7602 8.24115 12.1414 6.72733 11.953 5.22964C11.7645 3.73196 11.0202 2.35975 9.86757 1.38505C8.71495 0.410358 7.23817 -0.0956675 5.72999 -0.0327063C4.22181 0.030255 2.79234 0.657606 1.72496 1.72498C0.657591 2.79235 0.0302397 4.22182 -0.0327215 5.73C-0.0956828 7.23818 0.410343 8.71497 1.38504 9.86759C2.35974 11.0202 3.73194 11.7645 5.22963 11.953C6.72731 12.1414 8.24113 11.7602 9.47098 10.885L14.293 15.707C14.4816 15.8892 14.7342 15.99 14.9964 15.9877C15.2586 15.9854 15.5094 15.8802 15.6948 15.6948C15.8802 15.5094 15.9854 15.2586 15.9877 14.9964C15.9899 14.7342 15.8891 14.4816 15.707 14.293V14.293ZM5.99998 10C5.20886 10 4.4355 9.7654 3.7777 9.32588C3.11991 8.88635 2.60722 8.26164 2.30447 7.53073C2.00172 6.79983 1.9225 5.99556 2.07684 5.21964C2.23118 4.44371 2.61215 3.73098 3.17156 3.17157C3.73097 2.61216 4.4437 2.2312 5.21962 2.07686C5.99555 1.92252 6.79981 2.00173 7.53072 2.30448C8.26162 2.60723 8.88634 3.11992 9.32586 3.77772C9.76539 4.43551 9.99998 5.20887 9.99998 6C9.99998 7.06087 9.57856 8.07828 8.82841 8.82843C8.07827 9.57857 7.06085 10 5.99998 10V10Z" fill="#F9F9FA" fill-opacity="0.8"/>
</g>
<defs>
<clipPath id="clip0_320_246">
<rect width="16" height="16" fill="white"/>
</clipPath>
</defs>
</svg>
