<svg width="21" height="14" viewBox="0 0 21 14" fill="none" xmlns="http://www.w3.org/2000/svg">
<path fill-rule="evenodd" clip-rule="evenodd" d="M11 6.5L12.5 8L12.7929 7.70711C13.1834 7.31658 13.1834 6.68342 12.7929 6.29289L12.7071 6.20711C12.3166 5.81658 11.6834 5.81658 11.2929 6.20711L11 6.5ZM6 13L6.5 11L10.5 7L12 8.5L8 12.5L6 13Z" fill="#FDFDFA" fill-opacity="0.8"/>
<path fill-rule="evenodd" clip-rule="evenodd" d="M1 7C1 9.45293 2.47196 11.5621 4.58076 12.4923L4.87726 11.3063C3.29102 10.5229 2.2 8.88886 2.2 7C2.2 4.34903 4.34903 2.2 7 2.2C8.76291 2.2 10.3038 3.15037 11.1384 4.56673C11.554 4.41452 12.0018 4.37624 12.4336 4.45189C11.4755 2.41223 9.40265 1 7 1C3.68629 1 1 3.68629 1 7ZM7.15 6.85H8.52868L7.22868 8.15H6.5H5.85V7.5V3H7.15V6.85Z" fill="#FDFDFA" fill-opacity="0.8"/>
<path d="M17.5 9L20 6H15L17.5 9Z" fill="#FDFDFA" fill-opacity="0.8"/>
</svg>
